<?xml version="1.0" encoding="UTF-8"?>
<svg id="Layer_1" xmlns="http://www.w3.org/2000/svg" version="1.1" viewBox="0 0 344 127">
  <!-- Generator: Adobe Illustrator 29.3.1, SVG Export Plug-In . SVG Version: 2.1.0 Build 151)  -->
  <path d="M111.1,61.8c0,14.8,9.5,25.1,22.7,25.1s22.7-10.3,22.7-25.1-9.5-25.1-22.7-25.1-22.7,10.3-22.7,25.1ZM147.7,61.8c0,10.6-5.8,17.4-14,17.4s-14-6.9-14-17.4,5.8-17.4,14-17.4,14,6.9,14,17.4Z"/>
  <path d="M180.9,86.9c10,0,15.7-8.4,15.7-18.5s-5.7-18.5-15.7-18.5-8,1.8-10.2,4.5v-3.8h-8.1v47.8h8.1v-15.9c2.2,2.6,5.6,4.5,10.2,4.5h0ZM170.4,67.3c0-6.7,3.8-10.4,8.8-10.4s9.1,4.6,9.1,11.4-3.2,11.4-9.1,11.4-8.8-3.7-8.8-10.3v-2.1Z"/>
  <path d="M218.6,86.9c7.1,0,12.8-3.7,15.3-10l-7-2.6c-1.1,3.7-4.3,5.7-8.3,5.7s-8.9-3.7-9.5-9.8h25v-2.7c0-9.8-5.5-17.6-15.8-17.6s-17,8.1-17,18.5,7.1,18.5,17.3,18.5h0ZM218.2,56.7c5.2,0,7.6,3.4,7.7,7.3h-16.4c1.2-4.8,4.5-7.3,8.7-7.3h0Z"/>
  <path d="M240.2,86.1h8.1v-20.9c0-5.1,3.7-7.8,7.4-7.8s6.2,3.2,6.2,7.6v21.1h8.1v-23.5c0-7.7-4.5-12.8-11.9-12.8s-7.8,2.1-9.8,4.5v-3.8h-8.1v35.6Z"/>
  <path d="M293.9,37.4l-18.5,48.7h8.6l4.1-11.1h21l4.2,11.1h8.8l-18.5-48.7h-9.8ZM298.7,47l7.7,20.4h-15.3l7.6-20.4Z"/>
  <path d="M336.2,37.5h-8.7v48.7h8.7v-48.7Z"/>
  <path d="M91.2,55.3c2.1-6.2,1.3-12.9-1.9-18.5-4.9-8.6-14.9-13-24.6-10.9-4.3-4.9-10.5-7.6-17-7.6-9.9,0-18.7,6.4-21.7,15.8-6.4,1.3-11.9,5.3-15.1,10.9-5,8.6-3.8,19.4,2.8,26.7-2.1,6.2-1.3,12.9,1.9,18.5,4.9,8.6,14.9,13,24.6,10.9,4.3,4.9,10.5,7.6,17,7.6,9.9,0,18.7-6.4,21.8-15.8,6.4-1.3,11.9-5.3,15.1-10.9,5-8.6,3.8-19.4-2.8-26.7h0ZM57.2,102.8c-4,0-7.8-1.4-10.9-3.9.1,0,.4-.2.5-.3l18-10.4c.9-.5,1.5-1.5,1.5-2.6v-25.4l7.6,4.4c0,0,.1.1.1.2v21c0,9.4-7.6,16.9-16.9,17h0ZM20.7,87.3c-2-3.4-2.7-7.5-2-11.4.1,0,.4.2.5.3l18,10.4c.9.5,2,.5,3,0l22-12.7v8.8c0,0,0,.2-.1.2l-18.2,10.5c-8.1,4.7-18.5,1.9-23.2-6.2h0ZM16,47.9c2-3.4,5.1-6.1,8.8-7.4,0,.2,0,.4,0,.6v20.8c0,1.1.6,2,1.5,2.6l22,12.7-7.6,4.4c0,0-.2,0-.3,0l-18.2-10.5c-8.1-4.7-10.9-15-6.2-23.2h0ZM78.6,62.5l-22-12.7,7.6-4.4c0,0,.2,0,.3,0l18.2,10.5c8.1,4.7,10.9,15.1,6.2,23.2-2,3.4-5.1,6.1-8.8,7.4v-21.4c0-1.1-.6-2-1.5-2.6h0ZM86.1,51.1c-.1,0-.4-.2-.5-.3l-18-10.4c-.9-.5-2-.5-3,0l-22,12.7v-8.8c0,0,0-.2.1-.2l18.2-10.5c8.1-4.7,18.5-1.9,23.2,6.2,2,3.4,2.7,7.4,2,11.3h0ZM38.5,66.8l-7.6-4.4c0,0-.1-.1-.1-.2v-21c0-9.4,7.6-17,17-16.9,4,0,7.8,1.4,10.8,3.9-.1,0-.4.2-.5.3l-18,10.4c-.9.5-1.5,1.5-1.5,2.6v25.4s0,0,0,0ZM42.6,57.8l9.8-5.7,9.8,5.7v11.3l-9.8,5.7-9.8-5.7v-11.3Z"/>
</svg>